<?xml version="1.0" encoding="UTF-8"?>
<!DOCTYPE svg PUBLIC "-//W3C//DTD SVG 1.1//EN" "http://www.w3.org/Graphics/SVG/1.1/DTD/svg11.dtd">
<!-- Creator: CorelDRAW -->
<svg xmlns="http://www.w3.org/2000/svg" xml:space="preserve" width="40px" height="57px" version="1.1" style="shape-rendering:geometricPrecision; text-rendering:geometricPrecision; image-rendering:optimizeQuality; fill-rule:evenodd; clip-rule:evenodd"
viewBox="0 0 40 56.57"
 xmlns:xlink="http://www.w3.org/1999/xlink"
 xmlns:xodm="http://www.corel.com/coreldraw/odm/2003">
 <defs>
  <style type="text/css">
   <![CDATA[
    .fil0 {fill:black}
   ]]>
  </style>
 </defs>
 <g id="Слой_x0020_1">
  <metadata id="CorelCorpID_0Corel-Layer"/>
  <path class="fil0" d="M24.64 15.48c0,-0.05 0.02,-0.1 0.05,-0.14 0.04,-0.04 0.09,-0.06 0.14,-0.06 0,0 0,0 0,0 0,0 0.01,0 0.01,0 0.05,0 0.1,0.02 0.14,0.06 0.03,0.04 0.05,0.09 0.05,0.14 0,0 0,0 0,0 0,0.05 -0.02,0.1 -0.05,0.14 -0.04,0.04 -0.09,0.06 -0.14,0.06 0,0 -0.01,0 -0.01,0 0,0 0,0 0,0 -0.05,0 -0.1,-0.02 -0.14,-0.06 -0.03,-0.04 -0.05,-0.09 -0.05,-0.14 0,0 0,0 0,0l0 0zm0.02 0c0,-0.05 0.02,-0.09 0.05,-0.12 0.03,-0.03 0.08,-0.05 0.12,-0.05 0,0 0,0 0,0 0.05,0 0.09,0.02 0.13,0.05 0.03,0.03 0.05,0.07 0.05,0.12 0,0.05 -0.02,0.09 -0.05,0.12 -0.04,0.03 -0.08,0.05 -0.12,0.05 0,0 -0.01,0 -0.01,0 0,0 0,0 0,0 -0.04,0 -0.09,-0.01 -0.12,-0.05 -0.03,-0.03 -0.05,-0.07 -0.05,-0.12 0,0 0,0 0,0l0 0zm0.14 -0.02l0.04 0c0.01,0 0.02,-0.01 0.02,-0.02 0,0 0,0 0,0 0,-0.01 -0.01,-0.02 -0.02,-0.02 0,0 0,0 0,0l-0.04 0 0 0.04 0 0zm0 0.13l-0.06 0 0 -0.22 0.12 0c0.02,0 0.03,0.01 0.04,0.02 0.02,0 0.03,0.02 0.03,0.03 0,0.02 0,0.04 -0.02,0.05 0,0.01 -0.01,0.01 -0.02,0.02 0.02,0 0.03,0.01 0.03,0.03 0,0 0,0.01 0,0.01 0.01,0.02 0.01,0.03 0.01,0.04 0,0.01 0,0.01 0,0.02l-0.06 0c-0.01,-0.01 -0.01,-0.01 -0.01,-0.02 0,-0.01 0,-0.02 0,-0.04 0,0 0,-0.01 -0.01,-0.01 0,-0.01 -0.01,-0.01 -0.01,-0.01l-0.04 0 0 0.08 0 0zm-9.76 2.19l0.41 -1.05c0.01,-0.03 0.03,-0.04 0.06,-0.05 0.01,0 0.01,0 0.02,0 0.02,0 0.04,0 0.06,0.02 0.04,0.03 0.09,0.08 0.14,0.12 0.01,0.01 0.03,0.01 0.05,0 0.01,-0.01 0.02,-0.03 0.01,-0.04 -0.01,-0.26 -0.03,-0.5 -0.05,-0.76 -0.01,-0.02 -0.02,-0.03 -0.04,-0.04 0,0 -0.01,0 -0.02,0 -0.01,0 -0.02,0 -0.03,0.01l-0.57 0.53c0,0 -0.01,0.01 -0.01,0.02 0,0.02 0.02,0.04 0.04,0.04 0,0 0,0 0,0 0.06,0 0.11,0 0.17,0 0,0 0,0 0,0 0.03,0 0.07,0.02 0.09,0.04 0.01,0.02 0.02,0.04 0.02,0.07 0,0.01 0,0.02 -0.01,0.03l-0.42 1.06 -0.06 0 0.41 -1.05c0.01,-0.02 0.01,-0.04 0,-0.06 -0.02,-0.02 -0.04,-0.03 -0.06,-0.03 0,0 0,0 0,0 -0.03,0 -0.07,0 -0.11,0 -0.02,0 -0.04,0 -0.06,0 -0.04,0 -0.07,-0.02 -0.08,-0.06 -0.01,-0.01 -0.01,-0.02 -0.01,-0.03 0,-0.02 0.01,-0.04 0.03,-0.06l0.6 -0.56c0.02,-0.02 0.05,-0.03 0.07,-0.03 0.02,0 0.03,0 0.04,0 0.04,0.02 0.07,0.05 0.07,0.1 0.02,0.28 0.04,0.53 0.06,0.81 0,0 0,0.01 0,0.01 0,0.03 -0.01,0.06 -0.04,0.08 -0.01,0.01 -0.03,0.01 -0.05,0.01 -0.02,0 -0.04,0 -0.05,-0.01 -0.05,-0.04 -0.11,-0.08 -0.15,-0.13 -0.01,-0.01 -0.02,-0.02 -0.03,-0.02 -0.02,0 -0.04,0.01 -0.04,0.03 -0.15,0.32 -0.29,0.66 -0.4,1l-0.06 0 0 0zm1.79 -0.47c0.03,0.05 0.09,0.08 0.17,0.08 0.08,0 0.16,-0.03 0.24,-0.08 0.07,-0.05 0.13,-0.11 0.18,-0.17 0.1,-0.15 0.15,-0.29 0.16,-0.43 0,-0.07 -0.01,-0.12 -0.04,-0.17 -0.04,-0.06 -0.1,-0.08 -0.18,-0.08 -0.08,0 -0.16,0.03 -0.24,0.08 -0.06,0.04 -0.13,0.1 -0.17,0.17 -0.11,0.14 -0.17,0.28 -0.17,0.43 0,0.06 0.01,0.12 0.05,0.17l0 0zm-1.03 0.49l0.95 -2.45 0.7 0 -0.32 0.83c0.25,-0.14 0.5,-0.21 0.74,-0.19 0.26,0.02 0.43,0.16 0.46,0.39 0.06,0.34 -0.1,0.75 -0.43,1.09 -0.21,0.22 -0.49,0.37 -0.76,0.39 -0.26,0.02 -0.46,-0.05 -0.58,-0.21l-0.06 0.15 -0.7 0 0 0zm2.25 0l0.94 -2.45 0.73 0 -0.94 2.45 -0.73 0zm3.49 -1.74l-0.68 1.74 -0.68 0 0.06 -0.17c-0.09,0.07 -0.19,0.12 -0.29,0.16 -0.25,0.08 -0.47,0.08 -0.66,0.01 -0.21,-0.09 -0.29,-0.32 -0.19,-0.57l0.46 -1.17 0.71 0 -0.4 1.04c-0.03,0.07 -0.02,0.13 0.01,0.18 0.03,0.05 0.09,0.08 0.16,0.08 0.07,0 0.15,-0.02 0.23,-0.07 0.07,-0.05 0.12,-0.12 0.15,-0.19l0.4 -1.04 0.72 0zm0.08 0l0.64 0 -0.07 0.19c0.26,-0.2 0.55,-0.29 0.8,-0.25 0.16,0.03 0.26,0.12 0.31,0.27 0.11,-0.1 0.22,-0.16 0.35,-0.21 0.21,-0.08 0.41,-0.09 0.59,-0.03 0.22,0.07 0.31,0.32 0.21,0.59l-0.43 1.18 -0.66 0 0.37 -1.04c0.03,-0.07 0.03,-0.13 0,-0.19 -0.04,-0.05 -0.09,-0.07 -0.16,-0.07 -0.07,0 -0.14,0.02 -0.2,0.07 -0.07,0.05 -0.12,0.12 -0.15,0.19l-0.37 1.04 -0.68 0 0.37 -1.04c0.03,-0.07 0.03,-0.14 0,-0.2 -0.04,-0.05 -0.09,-0.07 -0.17,-0.07 -0.07,0 -0.13,0.03 -0.2,0.08 -0.06,0.05 -0.11,0.11 -0.14,0.18l-0.37 1.05 -0.67 0 0.63 -1.74 0 0z"/>
 </g>
</svg>
