<?xml version="1.0" encoding="UTF-8"?>
<!DOCTYPE svg PUBLIC "-//W3C//DTD SVG 1.1//EN" "http://www.w3.org/Graphics/SVG/1.1/DTD/svg11.dtd">
<!-- Creator: CorelDRAW -->
<svg xmlns="http://www.w3.org/2000/svg" xml:space="preserve" width="210mm" height="297mm" version="1.1" style="shape-rendering:geometricPrecision; text-rendering:geometricPrecision; image-rendering:optimizeQuality; fill-rule:evenodd; clip-rule:evenodd"
viewBox="0 0 21000 29700"
 xmlns:xlink="http://www.w3.org/1999/xlink"
 xmlns:xodm="http://www.corel.com/coreldraw/odm/2003">
 <defs>
  <style type="text/css">
   <![CDATA[
    .fil0 {fill:black}
   ]]>
  </style>
 </defs>
 <g id="Слой_x0020_1">
  <metadata id="CorelCorpID_0Corel-Layer"/>
  <path class="fil0" d="M12933.63 8127.19c0,-28.24 10.71,-53.96 30.62,-73.9 19.3,-19.57 45.66,-30.59 73.15,-30.59 0.24,0 0.47,0 0.71,0 0.26,0 0.54,0 0.79,0 27.47,0 53.83,11.03 73.09,30.59 19.57,19.28 30.62,45.66 30.62,73.15 0,0.24 0,0.5 0,0.74 0,28.2 -10.65,53.93 -30.63,73.9 -19.29,19.57 -45.67,30.6 -73.17,30.6 -0.22,0 -0.46,0 -0.69,0 -0.21,0 -0.43,0 -0.63,0 -27.52,0 -53.91,-11.03 -73.24,-30.59 -19.58,-19.32 -30.62,-45.73 -30.62,-73.25 0,-0.21 0,-0.44 0,-0.65l0 0zm13.77 0c0,-24.51 9.23,-46.87 26.54,-64.18 16.77,-17.01 39.7,-26.6 63.61,-26.6 0.18,0 0.38,0 0.56,0 24.54,0 46.88,9.26 64.19,26.59 17.36,17.31 26.59,39.71 26.59,64.19 0,24.48 -9.23,46.84 -26.59,64.18 -16.75,17 -39.66,26.6 -63.55,26.6 -0.21,0 -0.42,0 -0.63,0 -0.19,0 -0.39,0 -0.57,0 -23.91,0 -46.84,-9.59 -63.61,-26.6 -16.97,-16.75 -26.54,-39.64 -26.54,-63.49 0,-0.23 0,-0.47 0,-0.7l0 0.01zm73.92 -8.78l21.58 0c5.85,-0.05 10.56,-4.8 10.56,-10.65 0,-0.27 -0.01,-0.55 -0.03,-0.82 -0.47,-5.47 -5.06,-9.68 -10.55,-9.68 -0.01,0 -0.01,0 -0.01,0l-21.52 0 0 21.15 -0.03 0zm-0.24 64.21l-34.37 0 0 -110.9 66.9 0c7.63,-0.03 14.59,1.91 21.09,5.93 7.24,4.22 12.13,11.55 13.25,19.85 1.55,9.75 -1.48,19.28 -8.26,26.39 -3.03,3.25 -6.96,5.54 -11.28,6.6 7.74,1.87 13.65,7.86 15.43,15.64 0.64,2.78 1,5.33 1.24,8.17 0.61,7.75 1.24,14.77 1.94,22.51 0.2,2.18 1.11,4.24 2.6,5.84l-34.53 0c-1.51,-2.27 -2.43,-4.9 -2.66,-7.62 -0.83,-6.86 -1.52,-13.82 -1.98,-20.67 -0.19,-2.8 -1.46,-5.46 -3.56,-7.38 -2.03,-1.96 -4.74,-3.06 -7.56,-3.06l-18.22 -0.03 0 38.73 -0.03 0zm-5127.29 1149.97l219.14 -548.82c4.96,-13.71 16.04,-23.82 30.17,-27.48 3.59,-0.94 7.29,-1.42 11,-1.42 10.55,0 20.76,3.86 28.67,10.83 25.44,19.89 50.22,41.43 73.38,63.9 7.08,6.93 18.12,8.2 26.6,3.09 8.47,-5.12 12.43,-15.55 9.59,-25 -9.08,-136.5 -18.49,-260.44 -30.11,-396.7 -1.86,-9.96 -8.98,-18.19 -18.61,-21.42 -2.89,-1 -5.95,-1.51 -9.02,-1.51 -6.93,0 -13.61,2.59 -18.72,7.26l-297.4 275.18c-3.76,3.45 -5.91,8.32 -5.91,13.42 0,10.05 8.14,18.19 18.19,18.19 0.82,0 1.64,-0.06 2.46,-0.17 30.05,3.54 57.7,4.21 87.91,2 0,0 0.01,0 0.01,0 18.17,0 35.26,8.7 45.95,23.39 7.25,9.8 11.17,21.67 11.17,33.86 0,5.78 -0.88,11.53 -2.61,17.04l-219.05 554.24 -32.07 4.02 214.3 -555.33c3.99,-10.23 2.72,-21.45 -3.42,-30.44 -5.99,-8.94 -16.06,-14.31 -26.83,-14.31 -0.1,0 -0.21,0 -0.31,0 -20.09,-1.37 -40.4,-2.11 -60.6,-2.11 -10.95,0 -22.23,0.32 -33.07,0.64 -17.98,-0.68 -33.86,-12 -40.35,-28.79 -2.06,-5.24 -3.12,-10.84 -3.12,-16.48 0,-12.03 4.81,-23.58 13.34,-32.06l314.88 -294.36c10.63,-10.94 25.24,-17.12 40.48,-17.12 6.52,0 13.01,1.14 19.14,3.34 20.91,7.51 35.4,26.36 37.25,48.51 9.35,146.61 19.24,279.78 31.68,426.15 0.28,2.12 0.43,4.28 0.43,6.43 0,16.77 -8.67,32.35 -22.92,41.2 -7.72,4.84 -16.66,7.41 -25.78,7.41 -9.55,0 -18.91,-2.82 -26.87,-8.1 -28.56,-20.09 -55.12,-43.15 -78.99,-68.59 -4.41,-4.9 -10.71,-7.7 -17.32,-7.7 -8.85,0 -16.94,5 -20.88,12.92 -78.68,170.13 -149.09,346.77 -208.17,525.2l-33.35 -0.39 -0.26 0.08zm939.66 -245.8c19,27.35 50.68,41.85 91.57,41.85 40.91,0 83.82,-14.5 124.06,-41.85 36.27,-24.5 68.25,-55.11 94.28,-90.35 53.95,-74.53 83.12,-149.76 87,-224.35 1.45,-35.22 -6.45,-64.67 -24.15,-90.36 -19.25,-27.11 -50.96,-41.39 -91.78,-41.36 -40.85,0 -83.64,14.34 -123.88,41.48 -36.26,24.58 -68.2,55.14 -94.26,90.34 -55.5,74.28 -85.09,150.17 -87.51,224.52 -1.4,35.17 6.65,64.61 24.69,90.06l-0.02 0.02zm-538.63 256.15l497.23 -1281.93 368.42 0 -168.52 434.44c131.99,-75.11 265.74,-109.24 390.38,-99.62 133.57,9.54 223.74,85.25 242.08,203.32 29.81,180.47 -53.19,391.96 -224.37,571.61 -111.6,118.38 -260.18,195.02 -403.25,208.03 -133.47,10.81 -240.2,-29.14 -303.6,-113.59l-30.16 77.71 -368.21 0 0 0.03zm1180.14 0l497.23 -1281.93 383.24 0 -497.23 1281.93 -383.24 0zm1831.84 -911.55l-353.62 911.58 -360.85 0 34.23 -88.24c-49.24,37.58 -99.53,64.6 -155.05,83.52 -128.43,41.91 -245.96,43.54 -344.24,4.72 -111.78,-44.03 -151.51,-163.53 -98.4,-295.97l238.78 -615.58 376.1 0 -211.01 543.89c-14.13,37.52 -12.74,71.57 4.06,98.28 16.82,26.72 46.02,41.37 84.33,42.37 39.13,0.42 80.68,-13.65 119.05,-40.49 38.37,-26.84 66.78,-61.64 81.55,-99.77l211.12 -544.31 373.95 0zm42.91 0l337.06 0 -36.58 101.13c133.75,-107.03 288.1,-155.9 417.92,-132.3 83.15,13.89 140.58,62.73 163.58,139.11 57.92,-48.6 117.68,-83.73 183.68,-107.91 113.72,-41.85 218.38,-47.78 309.86,-17.58 117.68,39.97 162.65,168.18 109.21,311.13l-223.77 618.03 -346.57 0 196.05 -541.5c13.71,-38.25 12.23,-73.05 -4.14,-100.04 -16.31,-26.96 -44.76,-41.34 -81.55,-41.24 -35.71,0.57 -72.99,14.76 -107.51,40.82 -34.59,26.05 -60.22,59.46 -74.17,96.4l-197.51 545.56 -356.43 0 196.87 -543.92c14.59,-39.31 13.07,-75.23 -4.33,-102.49 -17.43,-27.27 -47.56,-40.97 -86.05,-39.07 -35.35,1.76 -71.69,16.4 -105.22,42.37 -33.5,25.93 -58.4,58.67 -71.93,94.8l-198.47 548.28 -350.05 0 330.05 -911.58 0 0z"/>
 </g>
</svg>
